<svg width="20" height="20" viewBox="0 0 20 20" fill="none" xmlns="http://www.w3.org/2000/svg">
<path d="M15.4545 9.09093H13.6364C13.3788 9.09093 13.163 9.00366 12.9891 8.82911C12.8151 8.65457 12.7279 8.43881 12.7273 8.18184C12.7267 7.92487 12.8139 7.70911 12.9891 7.53457C13.1642 7.36002 13.38 7.27275 13.6364 7.27275H15.4545V5.45457C15.4545 5.19699 15.5418 4.98123 15.7164 4.80729C15.8909 4.63336 16.1067 4.54608 16.3636 4.54548C16.6206 4.54487 16.8367 4.63214 17.0118 4.80729C17.187 4.98245 17.2739 5.1982 17.2727 5.45457V7.27275H19.0909C19.3485 7.27275 19.5645 7.36002 19.7391 7.53457C19.9136 7.70911 20.0006 7.92487 20 8.18184C19.9994 8.43881 19.9121 8.65487 19.7382 8.83002C19.5642 9.00517 19.3485 9.09214 19.0909 9.09093H17.2727V10.9091C17.2727 11.1667 17.1854 11.3827 17.0109 11.5573C16.8364 11.7318 16.6206 11.8188 16.3636 11.8182C16.1067 11.8176 15.8909 11.7303 15.7164 11.5564C15.5418 11.3824 15.4545 11.1667 15.4545 10.9091V9.09093ZM7.27273 10C6.27273 10 5.41667 9.64396 4.70454 8.93184C3.99242 8.21972 3.63636 7.36366 3.63636 6.36366C3.63636 5.36366 3.99242 4.5076 4.70454 3.79548C5.41667 3.08336 6.27273 2.72729 7.27273 2.72729C8.27273 2.72729 9.12879 3.08336 9.84091 3.79548C10.553 4.5076 10.9091 5.36366 10.9091 6.36366C10.9091 7.36366 10.553 8.21972 9.84091 8.93184C9.12879 9.64396 8.27273 10 7.27273 10ZM0 15.4546V14.7273C0 14.2121 0.132727 13.7388 0.398182 13.3073C0.663636 12.8758 1.01576 12.5461 1.45455 12.3182C2.39394 11.8485 3.34848 11.4964 4.31818 11.2618C5.28788 11.0273 6.27273 10.9097 7.27273 10.9091C8.27273 10.9085 9.25757 11.0261 10.2273 11.2618C11.197 11.4976 12.1515 11.8497 13.0909 12.3182C13.5303 12.5455 13.8827 12.8752 14.1482 13.3073C14.4136 13.7394 14.5461 14.2127 14.5455 14.7273V15.4546C14.5455 15.9546 14.3676 16.3827 14.0118 16.7391C13.6561 17.0955 13.2279 17.2734 12.7273 17.2727H1.81818C1.31818 17.2727 0.890303 17.0949 0.534545 16.7391C0.178788 16.3834 0.00060606 15.9552 0 15.4546ZM1.81818 15.4546H12.7273V14.7273C12.7273 14.5606 12.6858 14.4091 12.6027 14.2727C12.5197 14.1364 12.4097 14.0303 12.2727 13.9546C11.4545 13.5455 10.6288 13.2388 9.79545 13.0346C8.96212 12.8303 8.12121 12.7279 7.27273 12.7273C6.42424 12.7267 5.58333 12.8291 4.75 13.0346C3.91667 13.24 3.09091 13.5467 2.27273 13.9546C2.13636 14.0303 2.02636 14.1364 1.94273 14.2727C1.85909 14.4091 1.81758 14.5606 1.81818 14.7273V15.4546ZM7.27273 8.18184C7.77273 8.18184 8.20091 8.00396 8.55727 7.6482C8.91363 7.29245 9.09151 6.86426 9.09091 6.36366C9.0903 5.86305 8.91242 5.43517 8.55727 5.08002C8.20212 4.72487 7.77394 4.54669 7.27273 4.54548C6.77151 4.54426 6.34364 4.72245 5.98909 5.08002C5.63454 5.4376 5.45636 5.86548 5.45454 6.36366C5.45273 6.86184 5.63091 7.29002 5.98909 7.6482C6.34727 8.00638 6.77515 8.18426 7.27273 8.18184Z" fill="#D1D5DB"/>
</svg>
