<svg width="24" height="24" viewBox="0 0 24 24" fill="none" xmlns="http://www.w3.org/2000/svg">
<path d="M12 21C10.9167 21 9.91267 20.7333 8.988 20.2C8.06333 19.6667 7.334 18.9333 6.8 18H4V16H6.1C6.05 15.6667 6.02067 15.3333 6.012 15C6.00333 14.6667 5.99933 14.3333 6 14H4V12H6C6 11.6667 6.004 11.3333 6.012 11C6.02 10.6667 6.04933 10.3333 6.1 10H4V8H6.8C7.03333 7.61667 7.296 7.25833 7.588 6.925C7.88 6.59167 8.21733 6.3 8.6 6.05L7 4.4L8.4 3L10.55 5.15C11.0167 5 11.4917 4.925 11.975 4.925C12.4583 4.925 12.9333 5 13.4 5.15L15.6 3L17 4.4L15.35 6.05C15.7333 6.3 16.0793 6.58733 16.388 6.912C16.6967 7.23667 16.9673 7.59933 17.2 8H20V10H17.9C17.95 10.3333 17.9793 10.6667 17.988 11C17.9967 11.3333 18.0007 11.6667 18 12H20V14H18C18 14.3333 17.9957 14.6667 17.987 15C17.9783 15.3333 17.9493 15.6667 17.9 16H20V18H17.2C16.6667 18.9333 15.9377 19.6667 15.013 20.2C14.0883 20.7333 13.084 21 12 21ZM10 16H14V14H10V16ZM10 12H14V10H10V12Z" fill="#D1D5DB"/>
</svg>
