<svg width="20" height="20" viewBox="0 0 20 20" fill="none" xmlns="http://www.w3.org/2000/svg">
<path d="M4.375 16.1714H7.1875V11.6C7.1875 11.341 7.2775 11.124 7.4575 10.949C7.6375 10.7741 7.86 10.6863 8.125 10.6857H11.875C12.1406 10.6857 12.3634 10.7735 12.5434 10.949C12.7234 11.1246 12.8131 11.3416 12.8125 11.6V16.1714H15.625V7.94286L10 3.82857L4.375 7.94286V16.1714ZM2.5 16.1714V7.94286C2.5 7.65333 2.56656 7.37905 2.69969 7.12C2.83281 6.86095 3.01625 6.64762 3.25 6.48L8.875 2.36571C9.20312 2.1219 9.57812 2 10 2C10.4219 2 10.7969 2.1219 11.125 2.36571L16.75 6.48C16.9844 6.64762 17.1681 6.86095 17.3012 7.12C17.4344 7.37905 17.5006 7.65333 17.5 7.94286V16.1714C17.5 16.6743 17.3162 17.1049 16.9487 17.4633C16.5812 17.8217 16.14 18.0006 15.625 18H11.875C11.6094 18 11.3869 17.9122 11.2075 17.7367C11.0281 17.5611 10.9381 17.3441 10.9375 17.0857V12.5143H9.0625V17.0857C9.0625 17.3448 8.9725 17.5621 8.7925 17.7376C8.6125 17.9131 8.39 18.0006 8.125 18H4.375C3.85937 18 3.41812 17.8211 3.05125 17.4633C2.68437 17.1055 2.50062 16.6749 2.5 16.1714Z" fill="#D1D5DB"/>
</svg>
