<svg width="20" height="30" viewBox="0 0 20 30" fill="none" xmlns="http://www.w3.org/2000/svg">
<path d="M3.33317 29.6667C2.59984 29.6667 1.97228 29.4058 1.4505 28.884C0.928726 28.3623 0.667393 27.7343 0.666504 27V3.00004C0.666504 2.26671 0.927837 1.63915 1.4505 1.11737C1.97317 0.595596 2.60073 0.334263 3.33317 0.333374H16.6665C17.3998 0.333374 18.0278 0.594707 18.5505 1.11737C19.0732 1.64004 19.3341 2.2676 19.3332 3.00004V27C19.3332 27.7334 19.0723 28.3614 18.5505 28.884C18.0287 29.4067 17.4007 29.6676 16.6665 29.6667H3.33317ZM3.33317 23V27H16.6665V23H3.33317ZM9.99984 26.3334C10.3776 26.3334 10.6945 26.2054 10.9505 25.9494C11.2065 25.6934 11.3341 25.3769 11.3332 25C11.3323 24.6232 11.2043 24.3067 10.9492 24.0507C10.6941 23.7947 10.3776 23.6667 9.99984 23.6667C9.62206 23.6667 9.30561 23.7947 9.0505 24.0507C8.79539 24.3067 8.66739 24.6232 8.6665 25C8.66561 25.3769 8.79361 25.6938 9.0505 25.9507C9.30739 26.2076 9.62384 26.3352 9.99984 26.3334ZM3.33317 20.3334H16.6665V7.00004H3.33317V20.3334ZM3.33317 4.33337H16.6665V3.00004H3.33317V4.33337Z" fill="#E5E7EB"/>
</svg>
