<svg width="50" height="50" viewBox="0 0 50 50" fill="none" xmlns="http://www.w3.org/2000/svg">
<path d="M22.9167 20.8334C24.0625 20.8334 25.0437 20.4257 25.8604 19.6104C26.6771 18.7952 27.0847 17.8139 27.0833 16.6667C27.0819 15.5195 26.6743 14.5389 25.8604 13.725C25.0465 12.9111 24.0653 12.5028 22.9167 12.5C21.7681 12.4972 20.7875 12.9056 19.975 13.725C19.1625 14.5445 18.7542 15.525 18.75 16.6667C18.7458 17.8084 19.1542 18.7896 19.975 19.6104C20.7958 20.4313 21.7764 20.8389 22.9167 20.8334ZM22.9167 29.1667C24.4792 29.1667 25.9465 28.8368 27.3187 28.1771C28.691 27.5174 29.8799 26.5799 30.8854 25.3646C29.6701 24.566 28.3944 23.9584 27.0583 23.5417C25.7222 23.125 24.3417 22.9167 22.9167 22.9167C21.4917 22.9167 20.1118 23.125 18.7771 23.5417C17.4424 23.9584 16.166 24.566 14.9479 25.3646C15.9549 26.5799 17.1437 27.5174 18.5146 28.1771C19.8854 28.8368 21.3528 29.1667 22.9167 29.1667ZM22.9167 37.5C18.2639 37.5 14.3229 35.8854 11.0937 32.6563C7.86458 29.4271 6.25 25.4861 6.25 20.8334C6.25 16.1806 7.86458 12.2396 11.0937 9.01044C14.3229 5.78127 18.2639 4.16669 22.9167 4.16669C27.5694 4.16669 31.5104 5.78127 34.7396 9.01044C37.9687 12.2396 39.5833 16.1806 39.5833 20.8334C39.5833 22.7778 39.2708 24.6097 38.6458 26.3292C38.0208 28.0486 37.1528 29.6195 36.0417 31.0417L44.375 39.375C44.7569 39.757 44.9479 40.2431 44.9479 40.8334C44.9479 41.4236 44.7569 41.9097 44.375 42.2917C43.9931 42.6736 43.5069 42.8646 42.9167 42.8646C42.3264 42.8646 41.8403 42.6736 41.4583 42.2917L33.125 33.9584C31.7014 35.0695 30.1306 35.9375 28.4125 36.5625C26.6944 37.1875 24.8625 37.5 22.9167 37.5ZM22.9167 33.3334C26.3889 33.3334 29.3403 32.1181 31.7708 29.6875C34.2014 27.257 35.4167 24.3056 35.4167 20.8334C35.4167 17.3611 34.2014 14.4097 31.7708 11.9792C29.3403 9.54863 26.3889 8.33335 22.9167 8.33335C19.4444 8.33335 16.4931 9.54863 14.0625 11.9792C11.6319 14.4097 10.4167 17.3611 10.4167 20.8334C10.4167 24.3056 11.6319 27.257 14.0625 29.6875C16.4931 32.1181 19.4444 33.3334 22.9167 33.3334Z" fill="white"/>
</svg>
