<svg width="24" height="24" viewBox="0 0 24 24" fill="none" xmlns="http://www.w3.org/2000/svg">
<path d="M12 19.8999C13.6167 19.3999 14.9667 18.4126 16.05 16.9379C17.1333 15.4632 17.7667 13.8172 17.95 11.9999H12V4.1249L6 6.3749V11.5499C6 11.6666 6.01667 11.8166 6.05 11.9999H12V19.8999ZM12 21.8999C11.8833 21.8999 11.775 21.8916 11.675 21.8749C11.575 21.8582 11.475 21.8332 11.375 21.7999C9.125 21.0499 7.33333 19.6626 6 17.6379C4.66667 15.6132 4 13.4339 4 11.0999V6.3749C4 5.95824 4.121 5.58324 4.363 5.2499C4.605 4.91657 4.91733 4.6749 5.3 4.5249L11.3 2.2749C11.5333 2.19157 11.7667 2.1499 12 2.1499C12.2333 2.1499 12.4667 2.19157 12.7 2.2749L18.7 4.5249C19.0833 4.6749 19.396 4.91657 19.638 5.2499C19.88 5.58324 20.0007 5.95824 20 6.3749V11.0999C20 13.4332 19.3333 15.6126 18 17.6379C16.6667 19.6632 14.875 21.0506 12.625 21.7999C12.525 21.8332 12.425 21.8582 12.325 21.8749C12.225 21.8916 12.1167 21.8999 12 21.8999Z" fill="#D1D5DB"/>
</svg>
