<svg width="20" height="20" viewBox="0 0 20 20" fill="none" xmlns="http://www.w3.org/2000/svg">
<path d="M4.16667 18.3334C3.70833 18.3334 3.31611 18.1703 2.99 17.8442C2.66389 17.5181 2.50056 17.1256 2.5 16.6667V5.00002C2.5 4.54169 2.66333 4.14947 2.99 3.82336C3.31667 3.49725 3.70889 3.33391 4.16667 3.33336H5V2.50002C5 2.26391 5.08 2.06613 5.24 1.90669C5.4 1.74725 5.59778 1.66725 5.83333 1.66669C6.06889 1.66613 6.26694 1.74613 6.4275 1.90669C6.58806 2.06725 6.66778 2.26502 6.66667 2.50002V3.33336H13.3333V2.50002C13.3333 2.26391 13.4133 2.06613 13.5733 1.90669C13.7333 1.74725 13.9311 1.66725 14.1667 1.66669C14.4022 1.66613 14.6003 1.74613 14.7608 1.90669C14.9214 2.06725 15.0011 2.26502 15 2.50002V3.33336H15.8333C16.2917 3.33336 16.6842 3.49669 17.0108 3.82336C17.3375 4.15002 17.5006 4.54225 17.5 5.00002V16.6667C17.5 17.125 17.3369 17.5175 17.0108 17.8442C16.6847 18.1709 16.2922 18.3339 15.8333 18.3334H4.16667ZM4.16667 16.6667H15.8333V8.33336H4.16667V16.6667ZM4.16667 6.66669H15.8333V5.00002H4.16667V6.66669ZM10 11.6667C9.76389 11.6667 9.56611 11.5867 9.40667 11.4267C9.24722 11.2667 9.16722 11.0689 9.16667 10.8334C9.16611 10.5978 9.24611 10.4 9.40667 10.24C9.56722 10.08 9.765 10 10 10C10.235 10 10.4331 10.08 10.5942 10.24C10.7553 10.4 10.835 10.5978 10.8333 10.8334C10.8317 11.0689 10.7517 11.267 10.5933 11.4275C10.435 11.5881 10.2372 11.6678 10 11.6667ZM6.66667 11.6667C6.43056 11.6667 6.23278 11.5867 6.07333 11.4267C5.91389 11.2667 5.83389 11.0689 5.83333 10.8334C5.83278 10.5978 5.91278 10.4 6.07333 10.24C6.23389 10.08 6.43167 10 6.66667 10C6.90167 10 7.09972 10.08 7.26083 10.24C7.42194 10.4 7.50167 10.5978 7.5 10.8334C7.49833 11.0689 7.41833 11.267 7.26 11.4275C7.10167 11.5881 6.90389 11.6678 6.66667 11.6667ZM13.3333 11.6667C13.0972 11.6667 12.8994 11.5867 12.74 11.4267C12.5806 11.2667 12.5006 11.0689 12.5 10.8334C12.4994 10.5978 12.5794 10.4 12.74 10.24C12.9006 10.08 13.0983 10 13.3333 10C13.5683 10 13.7664 10.08 13.9275 10.24C14.0886 10.4 14.1683 10.5978 14.1667 10.8334C14.165 11.0689 14.085 11.267 13.9267 11.4275C13.7683 11.5881 13.5706 11.6678 13.3333 11.6667ZM10 15C9.76389 15 9.56611 14.92 9.40667 14.76C9.24722 14.6 9.16722 14.4022 9.16667 14.1667C9.16611 13.9311 9.24611 13.7334 9.40667 13.5734C9.56722 13.4134 9.765 13.3334 10 13.3334C10.235 13.3334 10.4331 13.4134 10.5942 13.5734C10.7553 13.7334 10.835 13.9311 10.8333 14.1667C10.8317 14.4022 10.7517 14.6003 10.5933 14.7609C10.435 14.9214 10.2372 15.0011 10 15ZM6.66667 15C6.43056 15 6.23278 14.92 6.07333 14.76C5.91389 14.6 5.83389 14.4022 5.83333 14.1667C5.83278 13.9311 5.91278 13.7334 6.07333 13.5734C6.23389 13.4134 6.43167 13.3334 6.66667 13.3334C6.90167 13.3334 7.09972 13.4134 7.26083 13.5734C7.42194 13.7334 7.50167 13.9311 7.5 14.1667C7.49833 14.4022 7.41833 14.6003 7.26 14.7609C7.10167 14.9214 6.90389 15.0011 6.66667 15ZM13.3333 15C13.0972 15 12.8994 14.92 12.74 14.76C12.5806 14.6 12.5006 14.4022 12.5 14.1667C12.4994 13.9311 12.5794 13.7334 12.74 13.5734C12.9006 13.4134 13.0983 13.3334 13.3333 13.3334C13.5683 13.3334 13.7664 13.4134 13.9275 13.5734C14.0886 13.7334 14.1683 13.9311 14.1667 14.1667C14.165 14.4022 14.085 14.6003 13.9267 14.7609C13.7683 14.9214 13.5706 15.0011 13.3333 15Z" fill="#D1D5DB"/>
</svg>
